<svg width="6" height="22" viewBox="0 0 6 22" fill="none" xmlns="http://www.w3.org/2000/svg">
<path d="M5.4375 19.125C5.4375 19.7715 5.18069 20.3915 4.72357 20.8486C4.26645 21.3057 3.64647 21.5625 3 21.5625C2.35353 21.5625 1.73355 21.3057 1.27643 20.8486C0.819307 20.3915 0.5625 19.7715 0.5625 19.125C0.5625 18.4785 0.819307 17.8585 1.27643 17.4014C1.73355 16.9443 2.35353 16.6875 3 16.6875C3.64647 16.6875 4.26645 16.9443 4.72357 17.4014C5.18069 17.8585 5.4375 18.4785 5.4375 19.125ZM5.4375 11C5.4375 11.6465 5.18069 12.2665 4.72357 12.7236C4.26645 13.1807 3.64647 13.4375 3 13.4375C2.35353 13.4375 1.73355 13.1807 1.27643 12.7236C0.819307 12.2665 0.5625 11.6465 0.5625 11C0.5625 10.3535 0.819307 9.73355 1.27643 9.27643C1.73355 8.81931 2.35353 8.5625 3 8.5625C3.64647 8.5625 4.26645 8.81931 4.72357 9.27643C5.18069 9.73355 5.4375 10.3535 5.4375 11ZM5.4375 2.875C5.4375 3.52147 5.18069 4.14145 4.72357 4.59857C4.26645 5.05569 3.64647 5.3125 3 5.3125C2.35353 5.3125 1.73355 5.05569 1.27643 4.59857C0.819307 4.14145 0.5625 3.52147 0.5625 2.875C0.5625 2.22853 0.819307 1.60855 1.27643 1.15143C1.73355 0.694307 2.35353 0.4375 3 0.4375C3.64647 0.4375 4.26645 0.694307 4.72357 1.15143C5.18069 1.60855 5.4375 2.22853 5.4375 2.875Z" fill="black"/>
</svg>
