<svg width="26" height="23" viewBox="0 0 26 23" fill="none" xmlns="http://www.w3.org/2000/svg">
<path d="M18.6437 2.25C19.2808 2.24946 19.9116 2.37611 20.4991 2.62252C21.0865 2.86894 21.6189 3.23015 22.065 3.685C22.9841 4.61808 23.4993 5.87526 23.4993 7.185C23.4993 8.49474 22.9841 9.75192 22.065 10.685L13 19.8637L3.93499 10.685C3.01587 9.75192 2.50068 8.49474 2.50068 7.185C2.50068 5.87526 3.01587 4.61808 3.93499 3.685C4.38132 3.23048 4.91374 2.86945 5.50116 2.623C6.08858 2.37655 6.71921 2.24962 7.35624 2.24962C7.99326 2.24962 8.6239 2.37655 9.21131 2.623C9.79873 2.86945 10.3312 3.23048 10.7775 3.685L13 5.96L15.2137 3.7025C15.6585 3.24223 16.1914 2.87638 16.7808 2.62681C17.3701 2.37724 18.0037 2.24908 18.6437 2.25ZM18.6437 0.499999C17.7737 0.499261 16.9122 0.672247 16.1098 1.00881C15.3075 1.34538 14.5804 1.83875 13.9712 2.46L13 3.44L12.0287 2.46C11.4188 1.83987 10.6916 1.34736 9.88935 1.01117C9.08714 0.674974 8.22604 0.501831 7.35624 0.501831C6.48643 0.501831 5.62533 0.674974 4.82312 1.01117C4.02092 1.34736 3.29366 1.83987 2.68374 2.46C1.44288 3.72317 0.74762 5.42306 0.74762 7.19375C0.74762 8.96443 1.44288 10.6643 2.68374 11.9275L13 22.375L23.3162 11.9275C24.5571 10.6643 25.2524 8.96443 25.2524 7.19375C25.2524 5.42306 24.5571 3.72317 23.3162 2.46C22.7065 1.83954 21.9793 1.34669 21.1771 1.01018C20.3749 0.673668 19.5137 0.500238 18.6437 0.499999Z" fill="black"/>
</svg>
